<svg width="24" height="25" viewBox="0 0 24 25" fill="none" xmlns="http://www.w3.org/2000/svg">
<g clip-path="url(#clip0_1_974)">
<path d="M23.9886 12.9903C23.9886 12.007 23.9069 11.2895 23.7302 10.5454H12.2391V14.9834H18.9841C18.8482 16.0863 18.1138 17.7472 16.4819 18.8633L16.459 19.0119L20.0923 21.7621L20.344 21.7866C22.6558 19.7005 23.9886 16.631 23.9886 12.9903Z" fill="#4285F4"/>
<path d="M12.2391 24.6833C15.5436 24.6833 18.3177 23.6203 20.344 21.7866L16.4819 18.8633C15.4484 19.5676 14.0613 20.0592 12.2391 20.0592C9.00254 20.0592 6.25557 17.9731 5.27636 15.0897L5.13282 15.1016L1.35489 17.9585L1.30548 18.0927C3.31811 21.9992 7.4522 24.6833 12.2391 24.6833Z" fill="#34A853"/>
<path d="M5.27634 15.0897C5.01797 14.3456 4.86844 13.5483 4.86844 12.7245C4.86844 11.9007 5.01797 11.1034 5.26275 10.3593L5.25591 10.2009L1.43063 7.29816L1.30547 7.35632C0.475969 8.97742 0 10.7979 0 12.7245C0 14.6512 0.475969 16.4716 1.30547 18.0927L5.27634 15.0897Z" fill="#FBBC05"/>
<path d="M12.2391 5.38978C14.5373 5.38978 16.0875 6.35976 16.9715 7.17036L20.4256 3.87503C18.3042 1.94834 15.5436 0.765747 12.2391 0.765747C7.4522 0.765747 3.31811 3.44981 1.30548 7.35631L5.26276 10.3593C6.25558 7.47595 9.00254 5.38978 12.2391 5.38978Z" fill="#EB4335"/>
</g>
<defs>
<clipPath id="clip0_1_974">
<rect width="24" height="24" fill="white" transform="translate(0 0.765747)"/>
</clipPath>
</defs>
</svg>
