<svg width="25" height="24" viewBox="0 0 25 24" fill="none" xmlns="http://www.w3.org/2000/svg">
<path d="M19.18 10.09H5.82001V22.5H19.18V10.09Z" stroke="#0A1931" stroke-width="1.5" stroke-miterlimit="10"/>
<path d="M12.5 1.5C13.7651 1.5 14.9783 2.00255 15.8729 2.8971C16.7674 3.79165 17.27 5.00492 17.27 6.27V10.09H7.73V6.27C7.73 5.00492 8.23255 3.79165 9.1271 2.8971C10.0216 2.00255 11.2349 1.5 12.5 1.5Z" stroke="#0A1931" stroke-width="1.5" stroke-miterlimit="10"/>
<path d="M12.5 15.81C13.0247 15.81 13.45 15.3847 13.45 14.86C13.45 14.3353 13.0247 13.91 12.5 13.91C11.9753 13.91 11.55 14.3353 11.55 14.86C11.55 15.3847 11.9753 15.81 12.5 15.81Z" stroke="#0A1931" stroke-width="1.5" stroke-miterlimit="10"/>
<path d="M12.5 19.64V15.82" stroke="#0A1931" stroke-width="1.5" stroke-miterlimit="10"/>
</svg>
