    <svg width="40" height="26" viewBox="0 0 40 26" fill="none" xmlns="http://www.w3.org/2000/svg">
<path d="M14.0521 3.3717H25.9532V22.6263H14.0521V3.3717Z" fill="#FF5F00"/>
<path d="M15.278 13.0005C15.2765 11.1465 15.7008 9.31638 16.5188 7.64875C17.3367 5.98112 18.5269 4.51964 19.9993 3.37492C18.1757 1.9553 15.9857 1.07253 13.6796 0.827483C11.3735 0.58244 9.04431 0.985017 6.95826 1.9892C4.87221 2.99339 3.11345 4.55867 1.88298 6.50615C0.65252 8.45363 0 10.7047 0 13.0022C0 15.2996 0.65252 17.5508 1.88298 19.4982C3.11345 21.4457 4.87221 23.011 6.95826 24.0152C9.04431 25.0194 11.3735 25.4219 13.6796 25.1769C15.9857 24.9319 18.1757 24.0491 19.9993 22.6295C18.5264 21.4844 17.336 20.0224 16.518 18.3541C15.7 16.6858 15.276 14.8551 15.278 13.0005V13.0005Z" fill="#EB001B"/>
<path d="M40 13.0007C40 15.2984 39.3473 17.5496 38.1166 19.4972C36.8859 21.4447 35.1269 23.01 33.0406 24.014C30.9542 25.018 28.6248 25.4204 26.3186 25.175C24.0123 24.9296 21.8223 24.0463 19.9989 22.6263C21.4707 21.4805 22.6605 20.0187 23.4787 18.3509C24.2969 16.6832 24.722 14.8532 24.722 12.999C24.722 11.1448 24.2969 9.31478 23.4787 7.64706C22.6605 5.97934 21.4707 4.51747 19.9989 3.37173C21.8223 1.95165 24.0124 1.06844 26.3186 0.823037C28.6248 0.577637 30.9543 0.979956 33.0406 1.984C35.1269 2.98805 36.8859 4.55332 38.1166 6.50087C39.3473 8.44843 40 10.6997 40 12.9973V13.0007Z" fill="#F79E1B"/>
</svg>
