<svg width="25" height="24" viewBox="0 0 25 24" fill="none" xmlns="http://www.w3.org/2000/svg">
<g clip-path="url(#clip0_1_762)">
<path d="M21.09 12C21.0911 11.473 21.0408 10.9472 20.94 10.43L23.03 9.23L20.16 4.23L18.08 5.43C17.2759 4.74864 16.3541 4.21995 15.36 3.87V1.5H9.64V3.91C8.64587 4.25995 7.72406 4.78864 6.92 5.47L4.84 4.27L1.97 9.27L4.06 10.47C3.85997 11.5071 3.85997 12.5729 4.06 13.61L1.97 14.81L4.84 19.81L6.92 18.61C7.72406 19.2914 8.64587 19.82 9.64 20.17V22.5H15.36V20.09C16.3541 19.74 17.2759 19.2114 18.08 18.53L20.16 19.73L23.03 14.73L20.94 13.53C21.0383 13.0259 21.0885 12.5136 21.09 12Z" stroke="#0A1931" stroke-width="1.5" stroke-miterlimit="10"/>
<path d="M12.5 15.82C14.6097 15.82 16.32 14.1097 16.32 12C16.32 9.89027 14.6097 8.18 12.5 8.18C10.3903 8.18 8.67999 9.89027 8.67999 12C8.67999 14.1097 10.3903 15.82 12.5 15.82Z" stroke="#0A1931" stroke-width="1.5" stroke-miterlimit="10"/>
</g>
<defs>
<clipPath id="clip0_1_762">
<rect width="24" height="24" fill="white" transform="translate(0.5)"/>
</clipPath>
</defs>
</svg>
