<svg width="46" height="16" viewBox="0 0 46 16" fill="none" xmlns="http://www.w3.org/2000/svg">
<path d="M20.0079 15.0562H16.336L18.6309 0.952528H22.3032L20.0079 15.0562ZM13.247 0.952528L9.74635 10.6531L9.33212 8.5642L9.33249 8.56495L8.09696 2.2224C8.09696 2.2224 7.94756 0.952528 6.35513 0.952528H0.567908L0.5 1.19134C0.5 1.19134 2.26974 1.55954 4.34092 2.80338L7.53106 15.0565H11.3569L17.1988 0.952528H13.247ZM42.1284 15.0562H45.5L42.5604 0.952151H39.6087C38.2456 0.952151 37.9136 2.00321 37.9136 2.00321L32.4372 15.0562H36.265L37.0304 12.9612H41.6983L42.1284 15.0562ZM38.0879 10.0672L40.0172 4.7893L41.1026 10.0672H38.0879ZM32.7243 4.34413L33.2484 1.31545C33.2484 1.31545 31.6314 0.700516 29.9458 0.700516C28.1236 0.700516 23.7964 1.49692 23.7964 5.36953C23.7964 9.01314 28.8751 9.05841 28.8751 10.9723C28.8751 12.8861 24.3197 12.5432 22.8163 11.3363L22.2704 14.5031C22.2704 14.5031 23.91 15.2995 26.415 15.2995C28.9208 15.2995 32.701 14.0021 32.701 10.4709C32.701 6.80389 27.5766 6.46246 27.5766 4.86815C27.577 3.27345 31.153 3.47831 32.7243 4.34413Z" fill="white"/>
</svg>
